<svg width="1499" height="251" viewBox="0 0 1499 251" fill="none" xmlns="http://www.w3.org/2000/svg">
<rect width="1499" height="251" fill="url(#paint0_radial_204_2)"/>
<path d="M723.175 186.08L728.679 171.616L657.895 136.16V123.36L712.935 95.84V107.36L673.255 126.688C671.804 127.456 670.482 128.096 669.287 128.608C668.092 129.12 667.196 129.461 666.599 129.632C667.196 129.803 668.092 130.144 669.287 130.656C670.482 131.168 671.804 131.808 673.255 132.576L732.263 162.016L768.615 65.76H780.775L772.967 86.624L846.055 123.36V136.16L791.015 163.68V152.544L830.695 133.088C832.316 132.32 833.81 131.68 835.175 131.168C836.626 130.571 837.692 130.187 838.375 130.016C837.607 129.845 836.498 129.504 835.047 128.992C833.596 128.395 832.146 127.712 830.695 126.944L769.255 96.224L735.335 186.08H723.175Z" fill="white"/>
<defs>
<radialGradient id="paint0_radial_204_2" cx="0" cy="0" r="1" gradientUnits="userSpaceOnUse" gradientTransform="translate(749.5 125.5) rotate(90) scale(125.5 749.5)">
<stop stop-color="#082948"/>
<stop offset="1" stop-color="#0D1117"/>
</radialGradient>
</defs>
</svg>
