<svg width="1499" height="275" viewBox="0 0 1499 275" fill="none" xmlns="http://www.w3.org/2000/svg">
<rect width="1499" height="275" fill="url(#paint0_radial_204_2)"/>
<path d="M723.175 198.08L728.679 183.616L657.895 148.16V135.36L712.935 107.84V119.36L673.255 138.688C671.804 139.456 670.482 140.096 669.287 140.608C668.092 141.12 667.196 141.461 666.599 141.632C667.196 141.803 668.092 142.144 669.287 142.656C670.482 143.168 671.804 143.808 673.255 144.576L732.263 174.016L768.615 77.76H780.775L772.967 98.624L846.055 135.36V148.16L791.015 175.68V164.544L830.695 145.088C832.316 144.32 833.81 143.68 835.175 143.168C836.626 142.571 837.692 142.187 838.375 142.016C837.607 141.845 836.498 141.504 835.047 140.992C833.596 140.395 832.146 139.712 830.695 138.944L769.255 108.224L735.335 198.08H723.175Z" fill="white"/>
<defs>
<radialGradient id="paint0_radial_204_2" cx="0" cy="0" r="1" gradientUnits="userSpaceOnUse" gradientTransform="translate(749.5 137.5) rotate(90) scale(137.5 749.5)">
<stop stop-color="#082948"/>
<stop offset="1" stop-color="#0D1117"/>
</radialGradient>
</defs>
</svg>
